# 3ds Max Wavefront OBJ Exporter v0.99 - (c)2007 guruware
# File Created: 03.10.2023 17:39:04

mtllib CAJA1PRUEBA.mtl

#
# object CAJA_3
#

v  -2.8342 39.3701 -156.4937
v  -2.8342 39.3701 -121.4543
v  32.2051 39.3701 -121.4543
v  32.2051 39.3701 -156.4937
v  -4.9996 37.2047 -121.4543
v  -4.9996 37.2047 -156.4937
v  -4.9996 0.0000 -156.4937
v  -4.9996 0.0000 -121.4543
v  -2.8342 37.2047 -158.6590
v  32.2051 37.2047 -158.6590
v  32.2051 0.0000 -158.6590
v  -2.8342 0.0000 -158.6590
v  34.3705 37.2047 -156.4937
v  34.3705 37.2047 -121.4543
v  34.3705 0.0000 -121.4543
v  34.3705 0.0000 -156.4937
v  32.2051 37.2047 -119.2890
v  -2.8342 37.2047 -119.2890
v  -2.8342 0.0000 -119.2890
v  32.2051 0.0000 -119.2890
v  -2.8342 39.2347 -157.4410
v  -3.7139 39.0994 -157.3734
v  -3.7816 39.2347 -156.4937
v  -4.3906 38.7611 -157.2380
v  -4.4582 38.8287 -156.4937
v  -2.8342 38.8287 -158.1177
v  -3.5786 38.7611 -158.0500
v  -4.1876 38.5581 -157.8470
v  -3.7816 39.2347 -121.4543
v  -3.7139 39.0994 -120.5746
v  -2.8342 39.2347 -120.5070
v  -3.5786 38.7611 -119.8980
v  -2.8342 38.8287 -119.8303
v  -4.4582 38.8287 -121.4543
v  -4.3906 38.7611 -120.7100
v  -4.1876 38.5581 -120.1010
v  32.2051 39.2347 -120.5070
v  33.0848 39.0994 -120.5746
v  33.1525 39.2347 -121.4543
v  33.7615 38.7611 -120.7100
v  33.8292 38.8287 -121.4543
v  32.2051 38.8287 -119.8303
v  32.9495 38.7611 -119.8980
v  33.5585 38.5581 -120.1010
v  33.1525 39.2347 -156.4937
v  33.0848 39.0994 -157.3734
v  32.2051 39.2347 -157.4410
v  32.9495 38.7611 -158.0500
v  32.2051 38.8287 -158.1177
v  33.8292 38.8287 -156.4937
v  33.7615 38.7611 -157.2380
v  33.5585 38.5581 -157.8470
v  -4.8642 37.2047 -120.5070
v  -4.7289 38.0844 -120.5746
v  -4.8642 38.1521 -121.4543
v  -4.4582 37.2047 -119.8303
v  -4.3906 37.9491 -119.8980
v  -4.8642 38.1521 -156.4937
v  -4.7289 38.0844 -157.3734
v  -4.8642 37.2047 -157.4410
v  -4.3906 37.9491 -158.0500
v  -4.4582 37.2047 -158.1177
v  -3.7816 37.2047 -158.5237
v  -3.7139 38.0844 -158.3884
v  -2.8342 38.1521 -158.5237
v  32.2051 38.1521 -158.5237
v  33.0848 38.0844 -158.3884
v  33.1525 37.2047 -158.5237
v  33.7615 37.9491 -158.0500
v  33.8292 37.2047 -158.1177
v  34.2352 37.2047 -157.4410
v  34.0998 38.0844 -157.3734
v  34.2352 38.1521 -156.4937
v  34.2352 38.1521 -121.4543
v  34.0998 38.0844 -120.5746
v  34.2352 37.2047 -120.5070
v  33.7615 37.9491 -119.8980
v  33.8292 37.2047 -119.8303
v  33.1525 37.2047 -119.4243
v  33.0848 38.0844 -119.5596
v  32.2051 38.1521 -119.4243
v  -2.8342 38.1521 -119.4243
v  -3.7139 38.0844 -119.5596
v  -3.7816 37.2047 -119.4243
v  -4.8642 0.0000 -157.4410
v  -4.4582 0.0000 -158.1177
v  -4.8642 0.0000 -120.5070
v  -4.4582 0.0000 -119.8303
v  33.1525 0.0000 -158.5237
v  33.8292 0.0000 -158.1177
v  -3.7816 0.0000 -158.5237
v  34.2352 0.0000 -120.5070
v  33.8292 0.0000 -119.8303
v  34.2352 0.0000 -157.4410
v  -3.7816 0.0000 -119.4243
v  33.1525 0.0000 -119.4243
# 96 vertices

vn -0.0705 0.9950 -0.0705
vn -0.0705 0.9950 0.0705
vn 0.0705 0.9950 0.0705
vn 0.0705 0.9950 -0.0705
vn -0.9950 0.0705 0.0705
vn -0.9950 0.0705 -0.0705
vn -0.9975 0.0000 -0.0709
vn -0.9975 0.0000 0.0709
vn -0.0705 0.0705 -0.9950
vn 0.0705 0.0705 -0.9950
vn 0.0709 0.0000 -0.9975
vn -0.0709 0.0000 -0.9975
vn 0.9950 0.0705 -0.0705
vn 0.9950 0.0705 0.0705
vn 0.9975 0.0000 0.0709
vn 0.9975 0.0000 -0.0709
vn 0.0705 0.0705 0.9950
vn -0.0705 0.0705 0.9950
vn -0.0709 0.0000 0.9975
vn 0.0709 0.0000 0.9975
vn -0.0836 0.9387 -0.3346
vn -0.3252 0.8880 -0.3252
vn -0.3346 0.9387 -0.0836
vn -0.6834 0.6834 -0.2565
vn -0.7057 0.7057 -0.0633
vn -0.0633 0.7057 -0.7057
vn -0.2565 0.6834 -0.6834
vn -0.5774 0.5774 -0.5774
vn -0.3346 0.9387 0.0836
vn -0.3252 0.8880 0.3252
vn -0.0836 0.9387 0.3346
vn -0.2565 0.6834 0.6834
vn -0.0633 0.7057 0.7057
vn -0.7057 0.7057 0.0633
vn -0.6834 0.6834 0.2565
vn -0.5774 0.5774 0.5774
vn 0.0836 0.9387 0.3346
vn 0.3252 0.8880 0.3252
vn 0.3346 0.9387 0.0836
vn 0.6834 0.6834 0.2565
vn 0.7057 0.7057 0.0633
vn 0.0633 0.7057 0.7057
vn 0.2565 0.6834 0.6834
vn 0.5774 0.5774 0.5774
vn 0.3346 0.9387 -0.0836
vn 0.3252 0.8880 -0.3252
vn 0.0836 0.9387 -0.3346
vn 0.2565 0.6834 -0.6834
vn 0.0633 0.7057 -0.7057
vn 0.7057 0.7057 -0.0633
vn 0.6834 0.6834 -0.2565
vn 0.5774 0.5774 -0.5774
vn -0.9387 0.0836 0.3346
vn -0.8880 0.3252 0.3252
vn -0.9387 0.3346 0.0836
vn -0.7057 0.0633 0.7057
vn -0.6834 0.2565 0.6834
vn -0.9387 0.3346 -0.0836
vn -0.8880 0.3252 -0.3252
vn -0.9387 0.0836 -0.3346
vn -0.6834 0.2565 -0.6834
vn -0.7057 0.0633 -0.7057
vn -0.3346 0.0836 -0.9387
vn -0.3252 0.3252 -0.8880
vn -0.0836 0.3346 -0.9387
vn 0.0836 0.3346 -0.9387
vn 0.3252 0.3252 -0.8880
vn 0.3346 0.0836 -0.9387
vn 0.6834 0.2565 -0.6834
vn 0.7057 0.0633 -0.7057
vn 0.9387 0.0836 -0.3346
vn 0.8880 0.3252 -0.3252
vn 0.9387 0.3346 -0.0836
vn 0.9387 0.3346 0.0836
vn 0.8880 0.3252 0.3252
vn 0.9387 0.0836 0.3346
vn 0.6834 0.2565 0.6834
vn 0.7057 0.0633 0.7057
vn 0.3346 0.0836 0.9387
vn 0.3252 0.3252 0.8880
vn 0.0836 0.3346 0.9387
vn -0.0836 0.3346 0.9387
vn -0.3252 0.3252 0.8880
vn -0.3346 0.0836 0.9387
vn -0.9424 0.0000 -0.3346
vn -0.7071 0.0000 -0.7071
vn -0.9424 0.0000 0.3346
vn -0.7071 0.0000 0.7071
vn 0.3346 0.0000 -0.9424
vn 0.7071 0.0000 -0.7071
vn -0.3346 0.0000 -0.9424
vn 0.9424 0.0000 0.3346
vn 0.7071 0.0000 0.7071
vn 0.9424 0.0000 -0.3346
vn -0.3346 0.0000 0.9424
vn 0.3346 0.0000 0.9424
# 96 vertex normals

vt 0.0550 0.9450 1.0000
vt 0.0550 0.0550 1.0000
vt 0.9450 0.0550 1.0000
vt 0.9450 0.9450 1.0000
vt 0.9450 0.9450 0.0000
vt 0.0550 0.9450 0.0000
vt 0.0550 -0.0000 0.0000
vt 0.9450 -0.0000 0.0000
vt 0.0550 -0.0000 1.0000
vt 0.9450 -0.0000 1.0000
vt 0.0550 0.9691 0.9966
vt 0.0327 0.9673 0.9931
vt 0.0309 0.9450 0.9966
vt 0.0155 0.9639 0.9845
vt 0.0138 0.9450 0.9862
vt 0.0550 0.9863 0.9862
vt 0.0361 0.9845 0.9845
vt 0.0206 0.9794 0.9794
vt 0.0309 0.0550 0.9966
vt 0.0327 0.0327 0.9931
vt 0.0550 0.0309 0.9966
vt 0.0361 0.0155 0.9845
vt 0.0550 0.0138 0.9862
vt 0.0137 0.0550 0.9862
vt 0.0155 0.0361 0.9845
vt 0.0206 0.0206 0.9794
vt 0.9450 0.0309 0.9966
vt 0.9673 0.0327 0.9931
vt 0.9691 0.0550 0.9966
vt 0.9845 0.0361 0.9845
vt 0.9862 0.0550 0.9862
vt 0.9450 0.0137 0.9862
vt 0.9639 0.0155 0.9845
vt 0.9794 0.0206 0.9794
vt 0.9691 0.9450 0.9966
vt 0.9673 0.9673 0.9931
vt 0.9450 0.9691 0.9966
vt 0.9639 0.9845 0.9845
vt 0.9450 0.9862 0.9862
vt 0.9863 0.9450 0.9862
vt 0.9845 0.9639 0.9845
vt 0.9794 0.9794 0.9794
vt 0.9691 0.9450 0.0034
vt 0.9673 0.9673 0.0069
vt 0.9450 0.9691 0.0034
vt 0.9639 0.9845 0.0155
vt 0.9450 0.9862 0.0137
vt 0.9862 0.9450 0.0137
vt 0.9845 0.9639 0.0155
vt 0.9794 0.9794 0.0206
vt 0.0550 0.9691 0.0034
vt 0.0327 0.9673 0.0069
vt 0.0309 0.9450 0.0034
vt 0.0155 0.9639 0.0155
vt 0.0137 0.9450 0.0138
vt 0.0550 0.9862 0.0138
vt 0.0361 0.9845 0.0155
vt 0.0206 0.9794 0.0206
vt 0.9450 0.9862 0.9863
vt 0.9862 0.9450 0.9863
vt 0.0137 0.9450 0.9862
vt 0.0550 0.9862 0.9862
vt 0.0309 -0.0000 0.0034
vt 0.0137 -0.0000 0.0138
vt 0.9691 -0.0000 0.0034
vt 0.9862 -0.0000 0.0137
vt 0.0309 -0.0000 0.9966
vt 0.0137 -0.0000 0.9862
vt 0.9691 -0.0000 0.9966
vt 0.9862 -0.0000 0.9863
# 70 texture coords

o CAJA_3
g CAJA_3
usemtl wire_224086086
s 1
f 1/1/1 2/2/2 3/3/3 4/4/4 
f 5/5/5 6/6/6 7/7/7 8/8/8 
f 9/4/9 10/1/10 11/9/11 12/10/12 
f 13/4/13 14/1/14 15/9/15 16/10/16 
f 17/5/17 18/6/18 19/7/19 20/8/20 
f 1/1/1 21/11/21 22/12/22 23/13/23 
f 23/13/23 22/12/22 24/14/24 25/15/25 
f 21/11/21 26/16/26 27/17/27 22/12/22 
f 22/12/22 27/17/27 28/18/28 24/14/24 
f 2/2/2 29/19/29 30/20/30 31/21/31 
f 31/21/31 30/20/30 32/22/32 33/23/33 
f 29/19/29 34/24/34 35/25/35 30/20/30 
f 30/20/30 35/25/35 36/26/36 32/22/32 
f 3/3/3 37/27/37 38/28/38 39/29/39 
f 39/29/39 38/28/38 40/30/40 41/31/41 
f 37/27/37 42/32/42 43/33/43 38/28/38 
f 38/28/38 43/33/43 44/34/44 40/30/40 
f 4/4/4 45/35/45 46/36/46 47/37/47 
f 47/37/47 46/36/46 48/38/48 49/39/49 
f 45/35/45 50/40/50 51/41/51 46/36/46 
f 46/36/46 51/41/51 52/42/52 48/38/48 
f 5/5/5 53/43/53 54/44/54 55/45/55 
f 55/45/55 54/44/54 35/46/35 34/47/34 
f 53/43/53 56/48/56 57/49/57 54/44/54 
f 54/44/54 57/49/57 36/50/36 35/46/35 
f 6/6/6 58/51/58 59/52/59 60/53/60 
f 60/53/60 59/52/59 61/54/61 62/55/62 
f 58/51/58 25/56/25 24/57/24 59/52/59 
f 59/52/59 24/57/24 28/58/28 61/54/61 
f 9/4/9 63/35/63 64/36/64 65/37/65 
f 65/37/65 64/36/64 27/38/27 26/59/26 
f 63/35/63 62/60/62 61/41/61 64/36/64 
f 64/36/64 61/41/61 28/42/28 27/38/27 
f 10/1/10 66/11/66 67/12/67 68/13/68 
f 68/13/68 67/12/67 69/14/69 70/61/70 
f 66/11/66 49/62/49 48/17/48 67/12/67 
f 67/12/67 48/17/48 52/18/52 69/14/69 
f 13/4/13 71/35/71 72/36/72 73/37/73 
f 73/37/73 72/36/72 51/38/51 50/59/50 
f 71/35/71 70/60/70 69/41/69 72/36/72 
f 72/36/72 69/41/69 52/42/52 51/38/51 
f 14/1/14 74/11/74 75/12/75 76/13/76 
f 76/13/76 75/12/75 77/14/77 78/61/78 
f 74/11/74 41/62/41 40/17/40 75/12/75 
f 75/12/75 40/17/40 44/18/44 77/14/77 
f 17/5/17 79/43/79 80/44/80 81/45/81 
f 81/45/81 80/44/80 43/46/43 42/47/42 
f 79/43/79 78/48/78 77/49/77 80/44/80 
f 80/44/80 77/49/77 44/50/44 43/46/43 
f 18/6/18 82/51/82 83/52/83 84/53/84 
f 84/53/84 83/52/83 57/54/57 56/55/56 
f 82/51/82 33/56/33 32/57/32 83/52/83 
f 83/52/83 32/57/32 36/58/36 57/54/57 
f 2/2/2 1/1/1 23/13/23 29/19/29 
f 29/19/29 23/13/23 25/15/25 34/24/34 
f 3/3/3 2/2/2 31/21/31 37/27/37 
f 37/27/37 31/21/31 33/23/33 42/32/42 
f 4/4/4 3/3/3 39/29/39 45/35/45 
f 45/35/45 39/29/39 41/31/41 50/40/50 
f 1/1/1 4/4/4 47/37/47 21/11/21 
f 21/11/21 47/37/47 49/39/49 26/16/26 
f 6/6/6 5/5/5 55/45/55 58/51/58 
f 58/51/58 55/45/55 34/47/34 25/56/25 
f 7/7/7 6/6/6 60/53/60 85/63/85 
f 85/63/85 60/53/60 62/55/62 86/64/86 
f 5/5/5 8/8/8 87/65/87 53/43/53 
f 53/43/53 87/65/87 88/66/88 56/48/56 
f 10/1/10 9/4/9 65/37/65 66/11/66 
f 66/11/66 65/37/65 26/59/26 49/62/49 
f 11/9/11 10/1/10 68/13/68 89/67/89 
f 89/67/89 68/13/68 70/61/70 90/68/90 
f 9/4/9 12/10/12 91/69/91 63/35/63 
f 63/35/63 91/69/91 86/70/86 62/60/62 
f 14/1/14 13/4/13 73/37/73 74/11/74 
f 74/11/74 73/37/73 50/59/50 41/62/41 
f 15/9/15 14/1/14 76/13/76 92/67/92 
f 92/67/92 76/13/76 78/61/78 93/68/93 
f 13/4/13 16/10/16 94/69/94 71/35/71 
f 71/35/71 94/69/94 90/70/90 70/60/70 
f 18/6/18 17/5/17 81/45/81 82/51/82 
f 82/51/82 81/45/81 42/47/42 33/56/33 
f 19/7/19 18/6/18 84/53/84 95/63/95 
f 95/63/95 84/53/84 56/55/56 88/64/88 
f 17/5/17 20/8/20 96/65/96 79/43/79 
f 79/43/79 96/65/96 93/66/93 78/48/78 
# 85 polygons

